/* XPM */
static char * rezerwar_xpm[] = {
"32 32 85 1",
" 	c None",
".	c #707C80",
"+	c #738185",
"@	c #778487",
"#	c #798689",
"$	c #7B888B",
"%	c #788588",
"&	c #727E82",
"*	c #6F7A7D",
"=	c #6E797C",
"-	c #6A767A",
";	c #636D71",
">	c #576165",
",	c #768386",
"'	c #7D888B",
")	c #4E0000",
"!	c #5A6366",
"~	c #495255",
"{	c #9F2626",
"]	c #9E2626",
"^	c #9E2625",
"/	c #677275",
"(	c #697579",
"_	c #952525",
":	c #962525",
"<	c #962625",
"[	c #952625",
"}	c #150908",
"|	c #485052",
"1	c #484E50",
"2	c #822424",
"3	c #822324",
"4	c #822323",
"5	c #822423",
"6	c #832323",
"7	c #832424",
"8	c #2A2323",
"9	c #C9B845",
"0	c #646E72",
"a	c #702223",
"b	c #6F2222",
"c	c #6F2223",
"d	c #6F2322",
"e	c #6F2323",
"f	c #51595B",
"g	c #474D4F",
"h	c #B3A03B",
"i	c #687376",
"j	c #616B6F",
"k	c #616A6D",
"l	c #5D676B",
"m	c #5C666A",
"n	c #5B6467",
"o	c #545D60",
"p	c #535C5F",
"q	c #4F585B",
"r	c #434A4D",
"s	c #43494B",
"t	c #8F8131",
"u	c #766C28",
"v	c #968A33",
"w	c #EF4625",
"x	c #40484A",
"y	c #81742B",
"z	c #EF9525",
"A	c #4C5456",
"B	c #8C7E30",
"C	c #3F4547",
"D	c #3C4446",
"E	c #3B4143",
"F	c #393F41",
"G	c #444C4E",
"H	c #383D3E",
"I	c #566164",
"J	c #B0A13C",
"K	c #363C3E",
"L	c #353B3D",
"M	c #647074",
"N	c #8C8030",
"O	c #34393A",
"P	c #81762B",
"Q	c #575F61",
"R	c #4D5659",
"S	c #AFA03B",
"T	c #8F8331",
"..++@@@@##$$$$%%@@++&&**==--;;>>",
"..++@@@@##$$$$%%@@++&&**==--;;>>",
"++,,@@%%''))))))))))))))));;!!~~",
"++,,@@%%'){{]{]{]]]]{^]{{{);!!~~",
",,@@//((/)____:______<__[_)}||11",
",,@@//((/)2334253652235257)8}|11",
"9@%%((//0)abcdeebbddbbcced)f8}gg",
"h@%%((//00))))))))))))))))ff1}gg",
"h#''ii00jjkkllmmnn>>ooppffqqg}rr",
"h#''ii00jjkkllmmnn>>ooppffqq}8rr",
"h9999999999999999999ooffqq}}8rss",
"hhhhhhhhhhhhhhhhhhhh9offq}88rrss",
"ttttttttttttttttttuhhvqw}8~~ssxx",
"tttttttttttttttttyuuhvqqzA~~ssxx",
"BBBBBBBBBBBBBBBByyuuhvAAwzw|CCDD",
"BBBBBBBBBBBBBBBByyuuhvAz~~||CCDD",
"yyyyyyyyyyyyyyyByyuuhv~~||wgDDEE",
"yyyyyyyyyyyyyyBByyuuhv~~||ggDDEE",
"uuuuuuuuuuuuutBByyuuhv||ggrrEEFF",
"uuuuuuuuuuuuttBByyuuhv||ggrrEEFF",
"hhhhhhhhhhhhttBByyuuhvggGGssFFHH",
"hvvvvvvvvv9httBByyuuhvggGGssFFHH",
"h*==IIoopp9JttBByyuuhvrrssxxKKLL",
"h*==IIoopp9JttBByyuuhvrrssxxKKLL",
"h*MMooppff9JttNNyyuuhvssxxDDLLOO",
"v*MMooppff9JttNNyyuuhvssxxDDLLOO",
"//jjppffqq9JttBBPPuuhvxxDDEEOOLL",
"//jjppffqq9JttBBPPuuhvxxDDEEOOLL",
"jjkkQQRRgg9STTNNPPuuhvKKLLOOLLKK",
"jjkkQQRRgg9STTNNPPuuhvKKLLOOLLKK",
"qq~~11ggrr9JTTNNPPuuhvLLOOLLHHFF",
"qq~~119hhhJJTTNNPPuuhhhhhvLLHHFF"};
